<mxfile host="Electron" agent="Mozilla/5.0 (Windows NT 10.0; Win64; x64) AppleWebKit/537.36 (KHTML, like Gecko) draw.io/24.7.8 Chrome/128.0.6613.36 Electron/32.0.1 Safari/537.36" version="24.7.8" pages="2">
  <diagram name="Діаграма класів" id="5IJSNLg33hsTsghz5EfH">
    <mxGraphModel dx="4327" dy="2070" grid="1" gridSize="10" guides="1" tooltips="1" connect="1" arrows="1" fold="1" page="1" pageScale="1" pageWidth="827" pageHeight="1169" math="0" shadow="0">
      <root>
        <mxCell id="0" />
        <mxCell id="1" parent="0" />
        <mxCell id="QOHwcZ-uDwawOqxLd50x-1" value="App" style="swimlane;fontStyle=1;align=center;verticalAlign=top;childLayout=stackLayout;horizontal=1;startSize=29.149999618530273;horizontalStack=0;resizeParent=1;resizeParentMax=0;resizeLast=0;collapsible=0;marginBottom=0;" vertex="1" parent="1">
          <mxGeometry x="173" y="20" width="315" height="124.14999961853027" as="geometry" />
        </mxCell>
        <mxCell id="QOHwcZ-uDwawOqxLd50x-2" value="+static double WindowWidth" style="text;strokeColor=none;fillColor=none;align=left;verticalAlign=top;spacingLeft=4;spacingRight=4;overflow=hidden;rotatable=0;points=[[0,0.5],[1,0.5]];portConstraint=eastwest;" vertex="1" parent="QOHwcZ-uDwawOqxLd50x-1">
          <mxGeometry y="29.149999618530273" width="315" height="29" as="geometry" />
        </mxCell>
        <mxCell id="QOHwcZ-uDwawOqxLd50x-3" value="+static double WindowHeight" style="text;strokeColor=none;fillColor=none;align=left;verticalAlign=top;spacingLeft=4;spacingRight=4;overflow=hidden;rotatable=0;points=[[0,0.5],[1,0.5]];portConstraint=eastwest;" vertex="1" parent="QOHwcZ-uDwawOqxLd50x-1">
          <mxGeometry y="58.14999961853027" width="315" height="29" as="geometry" />
        </mxCell>
        <mxCell id="QOHwcZ-uDwawOqxLd50x-4" style="line;strokeWidth=1;fillColor=none;align=left;verticalAlign=middle;spacingTop=-1;spacingLeft=3;spacingRight=3;rotatable=0;labelPosition=right;points=[];portConstraint=eastwest;strokeColor=inherit;" vertex="1" parent="QOHwcZ-uDwawOqxLd50x-1">
          <mxGeometry y="87.14999961853027" width="315" height="8" as="geometry" />
        </mxCell>
        <mxCell id="QOHwcZ-uDwawOqxLd50x-5" value="+Window CreateWindow(IActivationState)" style="text;strokeColor=none;fillColor=none;align=left;verticalAlign=top;spacingLeft=4;spacingRight=4;overflow=hidden;rotatable=0;points=[[0,0.5],[1,0.5]];portConstraint=eastwest;" vertex="1" parent="QOHwcZ-uDwawOqxLd50x-1">
          <mxGeometry y="95.14999961853027" width="315" height="29" as="geometry" />
        </mxCell>
        <mxCell id="QOHwcZ-uDwawOqxLd50x-6" value="MainPage" style="swimlane;fontStyle=1;align=center;verticalAlign=top;childLayout=stackLayout;horizontal=1;startSize=24.087499618530273;horizontalStack=0;resizeParent=1;resizeParentMax=0;resizeLast=0;collapsible=0;marginBottom=0;" vertex="1" parent="1">
          <mxGeometry x="157" y="213" width="348" height="392.0874996185303" as="geometry" />
        </mxCell>
        <mxCell id="QOHwcZ-uDwawOqxLd50x-7" value="-static string FilePath" style="text;strokeColor=none;fillColor=none;align=left;verticalAlign=top;spacingLeft=4;spacingRight=4;overflow=hidden;rotatable=0;points=[[0,0.5],[1,0.5]];portConstraint=eastwest;" vertex="1" parent="QOHwcZ-uDwawOqxLd50x-6">
          <mxGeometry y="24.087499618530273" width="348" height="24" as="geometry" />
        </mxCell>
        <mxCell id="QOHwcZ-uDwawOqxLd50x-8" value="+static string FilePath" style="text;strokeColor=none;fillColor=none;align=left;verticalAlign=top;spacingLeft=4;spacingRight=4;overflow=hidden;rotatable=0;points=[[0,0.5],[1,0.5]];portConstraint=eastwest;" vertex="1" parent="QOHwcZ-uDwawOqxLd50x-6">
          <mxGeometry y="48.08749961853027" width="348" height="24" as="geometry" />
        </mxCell>
        <mxCell id="QOHwcZ-uDwawOqxLd50x-9" value="+ObservableCollection&lt;Book&gt; BooksCollection" style="text;strokeColor=none;fillColor=none;align=left;verticalAlign=top;spacingLeft=4;spacingRight=4;overflow=hidden;rotatable=0;points=[[0,0.5],[1,0.5]];portConstraint=eastwest;" vertex="1" parent="QOHwcZ-uDwawOqxLd50x-6">
          <mxGeometry y="72.08749961853027" width="348" height="24" as="geometry" />
        </mxCell>
        <mxCell id="QOHwcZ-uDwawOqxLd50x-10" value="+readonly double BookListFrameHeight" style="text;strokeColor=none;fillColor=none;align=left;verticalAlign=top;spacingLeft=4;spacingRight=4;overflow=hidden;rotatable=0;points=[[0,0.5],[1,0.5]];portConstraint=eastwest;" vertex="1" parent="QOHwcZ-uDwawOqxLd50x-6">
          <mxGeometry y="96.08749961853027" width="348" height="24" as="geometry" />
        </mxCell>
        <mxCell id="QOHwcZ-uDwawOqxLd50x-11" style="line;strokeWidth=1;fillColor=none;align=left;verticalAlign=middle;spacingTop=-1;spacingLeft=3;spacingRight=3;rotatable=0;labelPosition=right;points=[];portConstraint=eastwest;strokeColor=inherit;" vertex="1" parent="QOHwcZ-uDwawOqxLd50x-6">
          <mxGeometry y="120.08749961853027" width="348" height="8" as="geometry" />
        </mxCell>
        <mxCell id="QOHwcZ-uDwawOqxLd50x-12" value="+MainPage()" style="text;strokeColor=none;fillColor=none;align=left;verticalAlign=top;spacingLeft=4;spacingRight=4;overflow=hidden;rotatable=0;points=[[0,0.5],[1,0.5]];portConstraint=eastwest;" vertex="1" parent="QOHwcZ-uDwawOqxLd50x-6">
          <mxGeometry y="128.08749961853027" width="348" height="24" as="geometry" />
        </mxCell>
        <mxCell id="QOHwcZ-uDwawOqxLd50x-13" value="+void OnAppearing()" style="text;strokeColor=none;fillColor=none;align=left;verticalAlign=top;spacingLeft=4;spacingRight=4;overflow=hidden;rotatable=0;points=[[0,0.5],[1,0.5]];portConstraint=eastwest;" vertex="1" parent="QOHwcZ-uDwawOqxLd50x-6">
          <mxGeometry y="152.08749961853027" width="348" height="24" as="geometry" />
        </mxCell>
        <mxCell id="QOHwcZ-uDwawOqxLd50x-14" value="-void UpdateBookList()" style="text;strokeColor=none;fillColor=none;align=left;verticalAlign=top;spacingLeft=4;spacingRight=4;overflow=hidden;rotatable=0;points=[[0,0.5],[1,0.5]];portConstraint=eastwest;" vertex="1" parent="QOHwcZ-uDwawOqxLd50x-6">
          <mxGeometry y="176.08749961853027" width="348" height="24" as="geometry" />
        </mxCell>
        <mxCell id="QOHwcZ-uDwawOqxLd50x-15" value="-async void OpenFileHandler(sender, e)" style="text;strokeColor=none;fillColor=none;align=left;verticalAlign=top;spacingLeft=4;spacingRight=4;overflow=hidden;rotatable=0;points=[[0,0.5],[1,0.5]];portConstraint=eastwest;" vertex="1" parent="QOHwcZ-uDwawOqxLd50x-6">
          <mxGeometry y="200.08749961853027" width="348" height="24" as="geometry" />
        </mxCell>
        <mxCell id="QOHwcZ-uDwawOqxLd50x-16" value="-async void InfoButtonHandler(sender, e)" style="text;strokeColor=none;fillColor=none;align=left;verticalAlign=top;spacingLeft=4;spacingRight=4;overflow=hidden;rotatable=0;points=[[0,0.5],[1,0.5]];portConstraint=eastwest;" vertex="1" parent="QOHwcZ-uDwawOqxLd50x-6">
          <mxGeometry y="224.08749961853027" width="348" height="24" as="geometry" />
        </mxCell>
        <mxCell id="QOHwcZ-uDwawOqxLd50x-17" value="-async void ExitButtonHandler(sender, e)" style="text;strokeColor=none;fillColor=none;align=left;verticalAlign=top;spacingLeft=4;spacingRight=4;overflow=hidden;rotatable=0;points=[[0,0.5],[1,0.5]];portConstraint=eastwest;" vertex="1" parent="QOHwcZ-uDwawOqxLd50x-6">
          <mxGeometry y="248.08749961853027" width="348" height="24" as="geometry" />
        </mxCell>
        <mxCell id="QOHwcZ-uDwawOqxLd50x-18" value="-async void AddBookHandler(sender, e)" style="text;strokeColor=none;fillColor=none;align=left;verticalAlign=top;spacingLeft=4;spacingRight=4;overflow=hidden;rotatable=0;points=[[0,0.5],[1,0.5]];portConstraint=eastwest;" vertex="1" parent="QOHwcZ-uDwawOqxLd50x-6">
          <mxGeometry y="272.0874996185303" width="348" height="24" as="geometry" />
        </mxCell>
        <mxCell id="QOHwcZ-uDwawOqxLd50x-19" value="-async void SearchHandler(sender, e)" style="text;strokeColor=none;fillColor=none;align=left;verticalAlign=top;spacingLeft=4;spacingRight=4;overflow=hidden;rotatable=0;points=[[0,0.5],[1,0.5]];portConstraint=eastwest;" vertex="1" parent="QOHwcZ-uDwawOqxLd50x-6">
          <mxGeometry y="296.0874996185303" width="348" height="24" as="geometry" />
        </mxCell>
        <mxCell id="QOHwcZ-uDwawOqxLd50x-20" value="-void ClearFiltersHandler(sender, e)" style="text;strokeColor=none;fillColor=none;align=left;verticalAlign=top;spacingLeft=4;spacingRight=4;overflow=hidden;rotatable=0;points=[[0,0.5],[1,0.5]];portConstraint=eastwest;" vertex="1" parent="QOHwcZ-uDwawOqxLd50x-6">
          <mxGeometry y="320.0874996185303" width="348" height="24" as="geometry" />
        </mxCell>
        <mxCell id="QOHwcZ-uDwawOqxLd50x-21" value="-async void ViewDescriptionHandler(sender, e)" style="text;strokeColor=none;fillColor=none;align=left;verticalAlign=top;spacingLeft=4;spacingRight=4;overflow=hidden;rotatable=0;points=[[0,0.5],[1,0.5]];portConstraint=eastwest;" vertex="1" parent="QOHwcZ-uDwawOqxLd50x-6">
          <mxGeometry y="344.0874996185303" width="348" height="24" as="geometry" />
        </mxCell>
        <mxCell id="QOHwcZ-uDwawOqxLd50x-22" value="-async void EditBookHandler(sender, e)" style="text;strokeColor=none;fillColor=none;align=left;verticalAlign=top;spacingLeft=4;spacingRight=4;overflow=hidden;rotatable=0;points=[[0,0.5],[1,0.5]];portConstraint=eastwest;" vertex="1" parent="QOHwcZ-uDwawOqxLd50x-6">
          <mxGeometry y="368.0874996185303" width="348" height="24" as="geometry" />
        </mxCell>
        <mxCell id="QOHwcZ-uDwawOqxLd50x-23" value="AddBookPage" style="swimlane;fontStyle=1;align=center;verticalAlign=top;childLayout=stackLayout;horizontal=1;startSize=25.91111077202691;horizontalStack=0;resizeParent=1;resizeParentMax=0;resizeLast=0;collapsible=0;marginBottom=0;" vertex="1" parent="1">
          <mxGeometry x="578" y="697" width="329" height="111.91111077202692" as="geometry" />
        </mxCell>
        <mxCell id="QOHwcZ-uDwawOqxLd50x-24" style="line;strokeWidth=1;fillColor=none;align=left;verticalAlign=middle;spacingTop=-1;spacingLeft=3;spacingRight=3;rotatable=0;labelPosition=right;points=[];portConstraint=eastwest;strokeColor=inherit;" vertex="1" parent="QOHwcZ-uDwawOqxLd50x-23">
          <mxGeometry y="25.91111077202691" width="329" height="8" as="geometry" />
        </mxCell>
        <mxCell id="QOHwcZ-uDwawOqxLd50x-25" value="+AddBookPage()" style="text;strokeColor=none;fillColor=none;align=left;verticalAlign=top;spacingLeft=4;spacingRight=4;overflow=hidden;rotatable=0;points=[[0,0.5],[1,0.5]];portConstraint=eastwest;" vertex="1" parent="QOHwcZ-uDwawOqxLd50x-23">
          <mxGeometry y="33.91111077202691" width="329" height="26" as="geometry" />
        </mxCell>
        <mxCell id="QOHwcZ-uDwawOqxLd50x-26" value="-async void SaveButtonHandler(sender, e)" style="text;strokeColor=none;fillColor=none;align=left;verticalAlign=top;spacingLeft=4;spacingRight=4;overflow=hidden;rotatable=0;points=[[0,0.5],[1,0.5]];portConstraint=eastwest;" vertex="1" parent="QOHwcZ-uDwawOqxLd50x-23">
          <mxGeometry y="59.91111077202691" width="329" height="26" as="geometry" />
        </mxCell>
        <mxCell id="QOHwcZ-uDwawOqxLd50x-27" value="-async void CancelButtonHandler(sender, e)" style="text;strokeColor=none;fillColor=none;align=left;verticalAlign=top;spacingLeft=4;spacingRight=4;overflow=hidden;rotatable=0;points=[[0,0.5],[1,0.5]];portConstraint=eastwest;" vertex="1" parent="QOHwcZ-uDwawOqxLd50x-23">
          <mxGeometry y="85.91111077202692" width="329" height="26" as="geometry" />
        </mxCell>
        <mxCell id="QOHwcZ-uDwawOqxLd50x-28" value="EditPage" style="swimlane;fontStyle=1;align=center;verticalAlign=top;childLayout=stackLayout;horizontal=1;startSize=26.899998982747395;horizontalStack=0;resizeParent=1;resizeParentMax=0;resizeLast=0;collapsible=0;marginBottom=0;" vertex="1" parent="1">
          <mxGeometry x="134" y="675" width="394" height="169.89999898274738" as="geometry" />
        </mxCell>
        <mxCell id="QOHwcZ-uDwawOqxLd50x-29" value="-Book Book" style="text;strokeColor=none;fillColor=none;align=left;verticalAlign=top;spacingLeft=4;spacingRight=4;overflow=hidden;rotatable=0;points=[[0,0.5],[1,0.5]];portConstraint=eastwest;" vertex="1" parent="QOHwcZ-uDwawOqxLd50x-28">
          <mxGeometry y="26.899998982747395" width="394" height="27" as="geometry" />
        </mxCell>
        <mxCell id="QOHwcZ-uDwawOqxLd50x-30" style="line;strokeWidth=1;fillColor=none;align=left;verticalAlign=middle;spacingTop=-1;spacingLeft=3;spacingRight=3;rotatable=0;labelPosition=right;points=[];portConstraint=eastwest;strokeColor=inherit;" vertex="1" parent="QOHwcZ-uDwawOqxLd50x-28">
          <mxGeometry y="53.89999898274739" width="394" height="8" as="geometry" />
        </mxCell>
        <mxCell id="QOHwcZ-uDwawOqxLd50x-31" value="+EditPage(Book)" style="text;strokeColor=none;fillColor=none;align=left;verticalAlign=top;spacingLeft=4;spacingRight=4;overflow=hidden;rotatable=0;points=[[0,0.5],[1,0.5]];portConstraint=eastwest;" vertex="1" parent="QOHwcZ-uDwawOqxLd50x-28">
          <mxGeometry y="61.89999898274739" width="394" height="27" as="geometry" />
        </mxCell>
        <mxCell id="QOHwcZ-uDwawOqxLd50x-32" value="-void RewriteJson(ObservableCollection&lt;Book&gt; data)" style="text;strokeColor=none;fillColor=none;align=left;verticalAlign=top;spacingLeft=4;spacingRight=4;overflow=hidden;rotatable=0;points=[[0,0.5],[1,0.5]];portConstraint=eastwest;" vertex="1" parent="QOHwcZ-uDwawOqxLd50x-28">
          <mxGeometry y="88.89999898274739" width="394" height="27" as="geometry" />
        </mxCell>
        <mxCell id="QOHwcZ-uDwawOqxLd50x-33" value="-async void SaveButtonHandler(sender, e)" style="text;strokeColor=none;fillColor=none;align=left;verticalAlign=top;spacingLeft=4;spacingRight=4;overflow=hidden;rotatable=0;points=[[0,0.5],[1,0.5]];portConstraint=eastwest;" vertex="1" parent="QOHwcZ-uDwawOqxLd50x-28">
          <mxGeometry y="115.89999898274739" width="394" height="27" as="geometry" />
        </mxCell>
        <mxCell id="QOHwcZ-uDwawOqxLd50x-34" value="-async void CancelButtonHandler(sender, e)" style="text;strokeColor=none;fillColor=none;align=left;verticalAlign=top;spacingLeft=4;spacingRight=4;overflow=hidden;rotatable=0;points=[[0,0.5],[1,0.5]];portConstraint=eastwest;" vertex="1" parent="QOHwcZ-uDwawOqxLd50x-28">
          <mxGeometry y="142.89999898274738" width="394" height="27" as="geometry" />
        </mxCell>
        <mxCell id="QOHwcZ-uDwawOqxLd50x-35" value="Book" style="swimlane;fontStyle=1;align=center;verticalAlign=top;childLayout=stackLayout;horizontal=1;startSize=24.830768291766827;horizontalStack=0;resizeParent=1;resizeParentMax=0;resizeLast=0;collapsible=0;marginBottom=0;" vertex="1" parent="1">
          <mxGeometry x="252" y="913" width="156" height="161.83076829176684" as="geometry" />
        </mxCell>
        <mxCell id="QOHwcZ-uDwawOqxLd50x-36" value="+string Title" style="text;strokeColor=none;fillColor=none;align=left;verticalAlign=top;spacingLeft=4;spacingRight=4;overflow=hidden;rotatable=0;points=[[0,0.5],[1,0.5]];portConstraint=eastwest;" vertex="1" parent="QOHwcZ-uDwawOqxLd50x-35">
          <mxGeometry y="24.830768291766827" width="156" height="25" as="geometry" />
        </mxCell>
        <mxCell id="QOHwcZ-uDwawOqxLd50x-37" value="+string Description" style="text;strokeColor=none;fillColor=none;align=left;verticalAlign=top;spacingLeft=4;spacingRight=4;overflow=hidden;rotatable=0;points=[[0,0.5],[1,0.5]];portConstraint=eastwest;" vertex="1" parent="QOHwcZ-uDwawOqxLd50x-35">
          <mxGeometry y="49.83076829176683" width="156" height="25" as="geometry" />
        </mxCell>
        <mxCell id="QOHwcZ-uDwawOqxLd50x-38" value="+string Year" style="text;strokeColor=none;fillColor=none;align=left;verticalAlign=top;spacingLeft=4;spacingRight=4;overflow=hidden;rotatable=0;points=[[0,0.5],[1,0.5]];portConstraint=eastwest;" vertex="1" parent="QOHwcZ-uDwawOqxLd50x-35">
          <mxGeometry y="74.83076829176683" width="156" height="25" as="geometry" />
        </mxCell>
        <mxCell id="QOHwcZ-uDwawOqxLd50x-39" value="+string Genre" style="text;strokeColor=none;fillColor=none;align=left;verticalAlign=top;spacingLeft=4;spacingRight=4;overflow=hidden;rotatable=0;points=[[0,0.5],[1,0.5]];portConstraint=eastwest;" vertex="1" parent="QOHwcZ-uDwawOqxLd50x-35">
          <mxGeometry y="99.83076829176683" width="156" height="25" as="geometry" />
        </mxCell>
        <mxCell id="QOHwcZ-uDwawOqxLd50x-40" value="+string AuthorName" style="text;strokeColor=none;fillColor=none;align=left;verticalAlign=top;spacingLeft=4;spacingRight=4;overflow=hidden;rotatable=0;points=[[0,0.5],[1,0.5]];portConstraint=eastwest;" vertex="1" parent="QOHwcZ-uDwawOqxLd50x-35">
          <mxGeometry y="124.83076829176683" width="156" height="25" as="geometry" />
        </mxCell>
        <mxCell id="QOHwcZ-uDwawOqxLd50x-41" style="line;strokeWidth=1;fillColor=none;align=left;verticalAlign=middle;spacingTop=-1;spacingLeft=3;spacingRight=3;rotatable=0;labelPosition=right;points=[];portConstraint=eastwest;strokeColor=inherit;" vertex="1" parent="QOHwcZ-uDwawOqxLd50x-35">
          <mxGeometry y="149.83076829176684" width="156" height="12" as="geometry" />
        </mxCell>
        <mxCell id="QOHwcZ-uDwawOqxLd50x-42" value="creates" style="curved=1;startArrow=none;endArrow=open;endSize=12;exitX=0.5;exitY=1;entryX=0.5;entryY=0;rounded=0;" edge="1" parent="1" source="QOHwcZ-uDwawOqxLd50x-1" target="QOHwcZ-uDwawOqxLd50x-6">
          <mxGeometry relative="1" as="geometry">
            <Array as="points" />
          </mxGeometry>
        </mxCell>
        <mxCell id="QOHwcZ-uDwawOqxLd50x-43" value="navigates to" style="curved=1;startArrow=none;endArrow=open;endSize=12;exitX=1;exitY=0.75;entryX=0.5;entryY=0;rounded=0;" edge="1" parent="1" source="QOHwcZ-uDwawOqxLd50x-6" target="QOHwcZ-uDwawOqxLd50x-23">
          <mxGeometry relative="1" as="geometry">
            <Array as="points">
              <mxPoint x="742" y="641" />
            </Array>
          </mxGeometry>
        </mxCell>
        <mxCell id="QOHwcZ-uDwawOqxLd50x-44" value="navigates to" style="curved=1;startArrow=none;endArrow=open;endSize=12;exitX=0.5;exitY=1;entryX=0.5;entryY=0;rounded=0;" edge="1" parent="1" source="QOHwcZ-uDwawOqxLd50x-6" target="QOHwcZ-uDwawOqxLd50x-28">
          <mxGeometry relative="1" as="geometry">
            <Array as="points" />
          </mxGeometry>
        </mxCell>
        <mxCell id="QOHwcZ-uDwawOqxLd50x-45" value="manages collection of" style="curved=1;startArrow=none;endArrow=open;endSize=12;exitX=0;exitY=0.83;entryX=0;entryY=0.32;rounded=0;" edge="1" parent="1" source="QOHwcZ-uDwawOqxLd50x-6" target="QOHwcZ-uDwawOqxLd50x-35">
          <mxGeometry relative="1" as="geometry">
            <Array as="points">
              <mxPoint x="20" y="641" />
              <mxPoint x="20" y="878" />
            </Array>
          </mxGeometry>
        </mxCell>
        <mxCell id="QOHwcZ-uDwawOqxLd50x-46" value="edits" style="curved=1;startArrow=none;endArrow=open;endSize=12;exitX=0.5;exitY=1;entryX=0.5;entryY=0;rounded=0;" edge="1" parent="1" source="QOHwcZ-uDwawOqxLd50x-28" target="QOHwcZ-uDwawOqxLd50x-35">
          <mxGeometry relative="1" as="geometry">
            <Array as="points" />
          </mxGeometry>
        </mxCell>
        <mxCell id="QOHwcZ-uDwawOqxLd50x-47" value="adds new" style="curved=1;startArrow=none;endArrow=open;endSize=12;exitX=0.5;exitY=1;entryX=1.01;entryY=0.37;rounded=0;" edge="1" parent="1" source="QOHwcZ-uDwawOqxLd50x-23" target="QOHwcZ-uDwawOqxLd50x-35">
          <mxGeometry relative="1" as="geometry">
            <Array as="points">
              <mxPoint x="742" y="878" />
            </Array>
          </mxGeometry>
        </mxCell>
      </root>
    </mxGraphModel>
  </diagram>
  <diagram id="x9y2PQWshV-bz23cPPq1" name="Сіквенс діаграма">
    <mxGraphModel dx="3000" dy="1774" grid="1" gridSize="10" guides="1" tooltips="1" connect="1" arrows="1" fold="1" page="1" pageScale="1" pageWidth="827" pageHeight="1169" math="0" shadow="0">
      <root>
        <mxCell id="0" />
        <mxCell id="1" parent="0" />
        <mxCell id="RB9ZGwokGg3t0iadfgri-27" value="User" style="shape=umlLifeline;perimeter=lifelinePerimeter;whiteSpace=wrap;container=1;dropTarget=0;collapsible=0;recursiveResize=0;outlineConnect=0;portConstraint=eastwest;newEdgeStyle={&quot;edgeStyle&quot;:&quot;elbowEdgeStyle&quot;,&quot;elbow&quot;:&quot;vertical&quot;,&quot;curved&quot;:0,&quot;rounded&quot;:0};participant=umlActor;verticalAlign=bottom;labelPosition=center;verticalLabelPosition=top;align=center;size=65;" vertex="1" parent="1">
          <mxGeometry x="90" y="710" width="35" height="1132" as="geometry" />
        </mxCell>
        <mxCell id="RB9ZGwokGg3t0iadfgri-28" value="User Interface" style="shape=umlLifeline;perimeter=lifelinePerimeter;whiteSpace=wrap;container=1;dropTarget=0;collapsible=0;recursiveResize=0;outlineConnect=0;portConstraint=eastwest;newEdgeStyle={&quot;edgeStyle&quot;:&quot;elbowEdgeStyle&quot;,&quot;elbow&quot;:&quot;vertical&quot;,&quot;curved&quot;:0,&quot;rounded&quot;:0};size=65;" vertex="1" parent="1">
          <mxGeometry x="385" y="710" width="150" height="1132" as="geometry" />
        </mxCell>
        <mxCell id="RB9ZGwokGg3t0iadfgri-29" value="Main Page" style="shape=umlLifeline;perimeter=lifelinePerimeter;whiteSpace=wrap;container=1;dropTarget=0;collapsible=0;recursiveResize=0;outlineConnect=0;portConstraint=eastwest;newEdgeStyle={&quot;edgeStyle&quot;:&quot;elbowEdgeStyle&quot;,&quot;elbow&quot;:&quot;vertical&quot;,&quot;curved&quot;:0,&quot;rounded&quot;:0};size=65;" vertex="1" parent="1">
          <mxGeometry x="632" y="710" width="150" height="1132" as="geometry" />
        </mxCell>
        <mxCell id="RB9ZGwokGg3t0iadfgri-30" value="File Picker" style="shape=umlLifeline;perimeter=lifelinePerimeter;whiteSpace=wrap;container=1;dropTarget=0;collapsible=0;recursiveResize=0;outlineConnect=0;portConstraint=eastwest;newEdgeStyle={&quot;edgeStyle&quot;:&quot;elbowEdgeStyle&quot;,&quot;elbow&quot;:&quot;vertical&quot;,&quot;curved&quot;:0,&quot;rounded&quot;:0};size=65;" vertex="1" parent="1">
          <mxGeometry x="832" y="710" width="150" height="1132" as="geometry" />
        </mxCell>
        <mxCell id="RB9ZGwokGg3t0iadfgri-31" value="File System" style="shape=umlLifeline;perimeter=lifelinePerimeter;whiteSpace=wrap;container=1;dropTarget=0;collapsible=0;recursiveResize=0;outlineConnect=0;portConstraint=eastwest;newEdgeStyle={&quot;edgeStyle&quot;:&quot;elbowEdgeStyle&quot;,&quot;elbow&quot;:&quot;vertical&quot;,&quot;curved&quot;:0,&quot;rounded&quot;:0};size=65;" vertex="1" parent="1">
          <mxGeometry x="1032" y="710" width="150" height="1132" as="geometry" />
        </mxCell>
        <mxCell id="RB9ZGwokGg3t0iadfgri-32" value="JSON Parser" style="shape=umlLifeline;perimeter=lifelinePerimeter;whiteSpace=wrap;container=1;dropTarget=0;collapsible=0;recursiveResize=0;outlineConnect=0;portConstraint=eastwest;newEdgeStyle={&quot;edgeStyle&quot;:&quot;elbowEdgeStyle&quot;,&quot;elbow&quot;:&quot;vertical&quot;,&quot;curved&quot;:0,&quot;rounded&quot;:0};size=65;" vertex="1" parent="1">
          <mxGeometry x="1232" y="710" width="150" height="1132" as="geometry" />
        </mxCell>
        <mxCell id="RB9ZGwokGg3t0iadfgri-33" value="Filter Logic" style="shape=umlLifeline;perimeter=lifelinePerimeter;whiteSpace=wrap;container=1;dropTarget=0;collapsible=0;recursiveResize=0;outlineConnect=0;portConstraint=eastwest;newEdgeStyle={&quot;edgeStyle&quot;:&quot;elbowEdgeStyle&quot;,&quot;elbow&quot;:&quot;vertical&quot;,&quot;curved&quot;:0,&quot;rounded&quot;:0};size=65;" vertex="1" parent="1">
          <mxGeometry x="1432" y="710" width="150" height="1132" as="geometry" />
        </mxCell>
        <mxCell id="RB9ZGwokGg3t0iadfgri-34" value="Clicks &quot;Select File&quot; button" style="verticalAlign=bottom;edgeStyle=elbowEdgeStyle;elbow=vertical;curved=0;rounded=0;endArrow=block;" edge="1" parent="1" source="RB9ZGwokGg3t0iadfgri-27" target="RB9ZGwokGg3t0iadfgri-28">
          <mxGeometry relative="1" as="geometry">
            <Array as="points">
              <mxPoint x="321" y="819" />
            </Array>
          </mxGeometry>
        </mxCell>
        <mxCell id="RB9ZGwokGg3t0iadfgri-35" value="Opens file picker dialog" style="verticalAlign=bottom;edgeStyle=elbowEdgeStyle;elbow=vertical;curved=0;rounded=0;endArrow=block;" edge="1" parent="1" source="RB9ZGwokGg3t0iadfgri-28" target="RB9ZGwokGg3t0iadfgri-30">
          <mxGeometry relative="1" as="geometry">
            <Array as="points">
              <mxPoint x="692" y="873" />
            </Array>
          </mxGeometry>
        </mxCell>
        <mxCell id="RB9ZGwokGg3t0iadfgri-36" value="Shows available JSON files" style="verticalAlign=bottom;edgeStyle=elbowEdgeStyle;elbow=vertical;curved=0;rounded=0;dashed=1;dashPattern=2 3;endArrow=block;" edge="1" parent="1" source="RB9ZGwokGg3t0iadfgri-30" target="RB9ZGwokGg3t0iadfgri-27">
          <mxGeometry relative="1" as="geometry">
            <Array as="points">
              <mxPoint x="548" y="927" />
            </Array>
          </mxGeometry>
        </mxCell>
        <mxCell id="RB9ZGwokGg3t0iadfgri-37" value="Selects a JSON file" style="verticalAlign=bottom;edgeStyle=elbowEdgeStyle;elbow=vertical;curved=0;rounded=0;endArrow=block;" edge="1" parent="1" source="RB9ZGwokGg3t0iadfgri-27" target="RB9ZGwokGg3t0iadfgri-30">
          <mxGeometry relative="1" as="geometry">
            <Array as="points">
              <mxPoint x="545" y="981" />
            </Array>
          </mxGeometry>
        </mxCell>
        <mxCell id="RB9ZGwokGg3t0iadfgri-38" value="Returns file path" style="verticalAlign=bottom;edgeStyle=elbowEdgeStyle;elbow=vertical;curved=0;rounded=0;endArrow=block;" edge="1" parent="1" source="RB9ZGwokGg3t0iadfgri-30" target="RB9ZGwokGg3t0iadfgri-29">
          <mxGeometry relative="1" as="geometry">
            <Array as="points">
              <mxPoint x="819" y="1035" />
            </Array>
          </mxGeometry>
        </mxCell>
        <mxCell id="RB9ZGwokGg3t0iadfgri-39" value="Reads JSON content" style="verticalAlign=bottom;edgeStyle=elbowEdgeStyle;elbow=vertical;curved=0;rounded=0;endArrow=block;" edge="1" parent="1" source="RB9ZGwokGg3t0iadfgri-29" target="RB9ZGwokGg3t0iadfgri-31">
          <mxGeometry relative="1" as="geometry">
            <Array as="points">
              <mxPoint x="916" y="1089" />
            </Array>
          </mxGeometry>
        </mxCell>
        <mxCell id="RB9ZGwokGg3t0iadfgri-40" value="Returns file content" style="verticalAlign=bottom;edgeStyle=elbowEdgeStyle;elbow=vertical;curved=0;rounded=0;dashed=1;dashPattern=2 3;endArrow=block;" edge="1" parent="1" source="RB9ZGwokGg3t0iadfgri-31" target="RB9ZGwokGg3t0iadfgri-29">
          <mxGeometry relative="1" as="geometry">
            <Array as="points">
              <mxPoint x="919" y="1143" />
            </Array>
          </mxGeometry>
        </mxCell>
        <mxCell id="RB9ZGwokGg3t0iadfgri-41" value="Parses JSON data" style="verticalAlign=bottom;edgeStyle=elbowEdgeStyle;elbow=vertical;curved=0;rounded=0;endArrow=block;" edge="1" parent="1" source="RB9ZGwokGg3t0iadfgri-29" target="RB9ZGwokGg3t0iadfgri-32">
          <mxGeometry relative="1" as="geometry">
            <Array as="points">
              <mxPoint x="1016" y="1197" />
            </Array>
          </mxGeometry>
        </mxCell>
        <mxCell id="RB9ZGwokGg3t0iadfgri-42" value="Returns list of books" style="verticalAlign=bottom;edgeStyle=elbowEdgeStyle;elbow=vertical;curved=0;rounded=0;dashed=1;dashPattern=2 3;endArrow=block;" edge="1" parent="1" source="RB9ZGwokGg3t0iadfgri-32" target="RB9ZGwokGg3t0iadfgri-29">
          <mxGeometry relative="1" as="geometry">
            <Array as="points">
              <mxPoint x="1019" y="1251" />
            </Array>
          </mxGeometry>
        </mxCell>
        <mxCell id="RB9ZGwokGg3t0iadfgri-43" value="Updates book list display" style="verticalAlign=bottom;edgeStyle=elbowEdgeStyle;elbow=vertical;curved=0;rounded=0;endArrow=block;" edge="1" parent="1" source="RB9ZGwokGg3t0iadfgri-29" target="RB9ZGwokGg3t0iadfgri-28">
          <mxGeometry relative="1" as="geometry">
            <Array as="points">
              <mxPoint x="595" y="1305" />
            </Array>
          </mxGeometry>
        </mxCell>
        <mxCell id="RB9ZGwokGg3t0iadfgri-44" value="Shows updated book list" style="verticalAlign=bottom;edgeStyle=elbowEdgeStyle;elbow=vertical;curved=0;rounded=0;dashed=1;dashPattern=2 3;endArrow=block;" edge="1" parent="1" source="RB9ZGwokGg3t0iadfgri-28" target="RB9ZGwokGg3t0iadfgri-27">
          <mxGeometry relative="1" as="geometry">
            <Array as="points">
              <mxPoint x="324" y="1359" />
            </Array>
          </mxGeometry>
        </mxCell>
        <mxCell id="RB9ZGwokGg3t0iadfgri-45" value="Enters &quot;Приг&quot; in the &quot;Title&quot; filter" style="verticalAlign=bottom;edgeStyle=elbowEdgeStyle;elbow=vertical;curved=0;rounded=0;endArrow=block;" edge="1" parent="1" source="RB9ZGwokGg3t0iadfgri-27" target="RB9ZGwokGg3t0iadfgri-28">
          <mxGeometry relative="1" as="geometry">
            <Array as="points">
              <mxPoint x="321" y="1413" />
            </Array>
          </mxGeometry>
        </mxCell>
        <mxCell id="RB9ZGwokGg3t0iadfgri-46" value="Clicks &quot;Search&quot; button" style="verticalAlign=bottom;edgeStyle=elbowEdgeStyle;elbow=vertical;curved=0;rounded=0;endArrow=block;" edge="1" parent="1" source="RB9ZGwokGg3t0iadfgri-27" target="RB9ZGwokGg3t0iadfgri-28">
          <mxGeometry relative="1" as="geometry">
            <Array as="points">
              <mxPoint x="321" y="1467" />
            </Array>
          </mxGeometry>
        </mxCell>
        <mxCell id="RB9ZGwokGg3t0iadfgri-47" value="Sends filter values" style="verticalAlign=bottom;edgeStyle=elbowEdgeStyle;elbow=vertical;curved=0;rounded=0;endArrow=block;" edge="1" parent="1" source="RB9ZGwokGg3t0iadfgri-28" target="RB9ZGwokGg3t0iadfgri-29">
          <mxGeometry relative="1" as="geometry">
            <Array as="points">
              <mxPoint x="592" y="1521" />
            </Array>
          </mxGeometry>
        </mxCell>
        <mxCell id="RB9ZGwokGg3t0iadfgri-48" value="Applies filter on book list" style="verticalAlign=bottom;edgeStyle=elbowEdgeStyle;elbow=vertical;curved=0;rounded=0;endArrow=block;" edge="1" parent="1" source="RB9ZGwokGg3t0iadfgri-29" target="RB9ZGwokGg3t0iadfgri-33">
          <mxGeometry relative="1" as="geometry">
            <Array as="points">
              <mxPoint x="1116" y="1575" />
            </Array>
          </mxGeometry>
        </mxCell>
        <mxCell id="RB9ZGwokGg3t0iadfgri-49" value="Returns filtered book list" style="verticalAlign=bottom;edgeStyle=elbowEdgeStyle;elbow=vertical;curved=0;rounded=0;dashed=1;dashPattern=2 3;endArrow=block;" edge="1" parent="1" source="RB9ZGwokGg3t0iadfgri-33" target="RB9ZGwokGg3t0iadfgri-29">
          <mxGeometry relative="1" as="geometry">
            <Array as="points">
              <mxPoint x="1119" y="1629" />
            </Array>
          </mxGeometry>
        </mxCell>
        <mxCell id="RB9ZGwokGg3t0iadfgri-50" value="Updates book list display" style="verticalAlign=bottom;edgeStyle=elbowEdgeStyle;elbow=vertical;curved=0;rounded=0;endArrow=block;" edge="1" parent="1" source="RB9ZGwokGg3t0iadfgri-29" target="RB9ZGwokGg3t0iadfgri-28">
          <mxGeometry relative="1" as="geometry">
            <Array as="points">
              <mxPoint x="595" y="1683" />
            </Array>
          </mxGeometry>
        </mxCell>
        <mxCell id="RB9ZGwokGg3t0iadfgri-51" value="Shows filtered book list" style="verticalAlign=bottom;edgeStyle=elbowEdgeStyle;elbow=vertical;curved=0;rounded=0;dashed=1;dashPattern=2 3;endArrow=block;" edge="1" parent="1" source="RB9ZGwokGg3t0iadfgri-28" target="RB9ZGwokGg3t0iadfgri-27">
          <mxGeometry relative="1" as="geometry">
            <Array as="points">
              <mxPoint x="324" y="1737" />
            </Array>
          </mxGeometry>
        </mxCell>
        <mxCell id="RB9ZGwokGg3t0iadfgri-53" value="&lt;font style=&quot;font-size: 36px;&quot;&gt;Користувач обирає *.json файл перед ним з&#39;являється список книг. Далі він вводить у фільтр &quot;Назва&quot; текст &quot;Приг&quot;, натискає кнопку знайти і отримує оновлений список книг&lt;/font&gt;" style="text;html=1;align=center;verticalAlign=middle;whiteSpace=wrap;rounded=0;" vertex="1" parent="1">
          <mxGeometry x="330" y="330" width="1025" height="100" as="geometry" />
        </mxCell>
      </root>
    </mxGraphModel>
  </diagram>
</mxfile>
